<svg width="960" height="540" viewBox="0 0 960 540" fill="none" xmlns="http://www.w3.org/2000/svg" role="img" aria-labelledby="title desc">
  <title id="title">Codebolt Editor desktop workspace</title>
  <desc id="desc">A desktop editor workspace with file tree, code editor, agent thread, terminal, and runtime panels.</desc>
  <rect width="960" height="540" rx="24" fill="#050816"/>
  <rect x="42" y="42" width="876" height="456" rx="18" fill="#0A0F1E" stroke="#1F2937"/>
  <rect x="42" y="42" width="876" height="40" rx="18" fill="#111827"/>
  <circle cx="72" cy="62" r="5" fill="#334155"/>
  <circle cx="92" cy="62" r="5" fill="#334155"/>
  <circle cx="112" cy="62" r="5" fill="#334155"/>
  <text x="142" y="67" fill="#94A3B8" font-family="Inter, ui-sans-serif, system-ui" font-size="12" letter-spacing="1.8">CODEBOLT EDITOR</text>
  <rect x="62" y="102" width="160" height="366" rx="12" fill="#0F172A" stroke="#334155"/>
  <text x="86" y="132" fill="#94A3B8" font-family="Inter, ui-sans-serif, system-ui" font-size="11">PROJECT</text>
  <rect x="86" y="154" width="88" height="8" rx="4" fill="#38BDF8"/>
  <rect x="86" y="182" width="108" height="8" rx="4" fill="#334155"/>
  <rect x="86" y="210" width="76" height="8" rx="4" fill="#334155"/>
  <rect x="86" y="238" width="118" height="8" rx="4" fill="#334155"/>
  <rect x="246" y="102" width="392" height="236" rx="12" fill="#090A12" stroke="#334155"/>
  <text x="270" y="132" fill="#94A3B8" font-family="Inter, ui-sans-serif, system-ui" font-size="11">src/agent.ts</text>
  <rect x="270" y="160" width="190" height="10" rx="5" fill="#38BDF8"/>
  <rect x="270" y="188" width="304" height="10" rx="5" fill="#334155"/>
  <rect x="270" y="216" width="254" height="10" rx="5" fill="#334155"/>
  <rect x="270" y="244" width="330" height="10" rx="5" fill="#334155"/>
  <rect x="270" y="272" width="222" height="10" rx="5" fill="#5EEAD4"/>
  <rect x="662" y="102" width="236" height="236" rx="12" fill="#071B2B" stroke="#38BDF8"/>
  <text x="686" y="132" fill="#BAE6FD" font-family="Inter, ui-sans-serif, system-ui" font-size="11">AGENT THREAD</text>
  <rect x="686" y="158" width="172" height="34" rx="8" fill="#111827" stroke="#334155"/>
  <rect x="686" y="210" width="142" height="34" rx="8" fill="#111827" stroke="#334155"/>
  <rect x="686" y="262" width="188" height="34" rx="8" fill="#0D1B2A" stroke="#2DD4BF"/>
  <rect x="246" y="362" width="392" height="106" rx="12" fill="#111827" stroke="#334155"/>
  <text x="270" y="392" fill="#94A3B8" font-family="Inter, ui-sans-serif, system-ui" font-size="11">TERMINAL</text>
  <rect x="270" y="420" width="272" height="8" rx="4" fill="#334155"/>
  <rect x="270" y="444" width="196" height="8" rx="4" fill="#38BDF8"/>
  <rect x="662" y="362" width="236" height="106" rx="12" fill="#17142A" stroke="#A78BFA"/>
  <text x="686" y="392" fill="#C4B5FD" font-family="Inter, ui-sans-serif, system-ui" font-size="11">RUNTIME PANEL</text>
  <rect x="686" y="420" width="78" height="28" rx="7" fill="#111827" stroke="#475569"/>
  <rect x="784" y="420" width="78" height="28" rx="7" fill="#111827" stroke="#475569"/>
</svg>
