<svg width="720" height="320" viewBox="0 0 720 320" fill="none" xmlns="http://www.w3.org/2000/svg" role="img" aria-labelledby="title desc">
  <title id="title">Observe every run</title>
  <desc id="desc">Roadmaps, specs, action plans, tasks, logs, traces, evals, and optimization loops connect in one lifecycle view.</desc>
  <defs><marker id="arrow" markerWidth="10" markerHeight="10" refX="8" refY="5" orient="auto"><path d="M1 1L9 5L1 9" stroke="#A78BFA" stroke-width="1.6" stroke-linecap="round" stroke-linejoin="round"/></marker></defs>
  <rect width="720" height="320" rx="18" fill="#050816"/><rect x="32" y="28" width="656" height="264" rx="14" fill="#090A17" stroke="#1F2937"/>
  <text x="58" y="64" fill="#94A3B8" font-family="Inter, ui-sans-serif, system-ui" font-size="12" letter-spacing="1.8">TRACE LIFECYCLE</text>
  <g fill="#111827" stroke="#475569"><rect x="70" y="102" width="104" height="36" rx="8"/><rect x="210" y="102" width="104" height="36" rx="8"/><rect x="350" y="102" width="104" height="36" rx="8"/><rect x="490" y="102" width="104" height="36" rx="8"/></g>
  <path d="M180 120H202M320 120H342M460 120H482" stroke="#A78BFA" stroke-width="1.8" marker-end="url(#arrow)"/>
  <text x="122" y="125" text-anchor="middle" fill="#E2E8F0" font-family="Inter, ui-sans-serif, system-ui" font-size="11">roadmap</text><text x="262" y="125" text-anchor="middle" fill="#E2E8F0" font-family="Inter, ui-sans-serif, system-ui" font-size="11">spec</text><text x="402" y="125" text-anchor="middle" fill="#E2E8F0" font-family="Inter, ui-sans-serif, system-ui" font-size="11">plan</text><text x="542" y="125" text-anchor="middle" fill="#E2E8F0" font-family="Inter, ui-sans-serif, system-ui" font-size="11">task</text>
  <rect x="138" y="208" width="444" height="36" rx="8" fill="#17142A" stroke="#A78BFA"/><text x="360" y="231" text-anchor="middle" fill="#EDE9FE" font-family="Inter, ui-sans-serif, system-ui" font-size="12">run -> logs -> trace -> eval -> optimize</text>
</svg>
