<svg width="560" height="320" viewBox="0 0 560 320" fill="none" xmlns="http://www.w3.org/2000/svg" role="img" aria-labelledby="title desc">
  <title id="title">Agent framework composition</title>
  <desc id="desc">The agent framework composes tools, workflows, processors, message modifiers, compaction, and execution control.</desc>
  <rect width="560" height="320" rx="18" fill="#050816"/>
  <rect x="30" y="28" width="500" height="264" rx="14" fill="#090A17" stroke="#1F2937"/>
  <text x="54" y="64" fill="#94A3B8" font-family="Inter, ui-sans-serif, system-ui" font-size="12" letter-spacing="1.8">AGENT FRAMEWORK</text>
  <circle cx="280" cy="168" r="58" fill="#17142A" stroke="#A78BFA"/>
  <text x="280" y="163" text-anchor="middle" fill="#EDE9FE" font-family="Inter, ui-sans-serif, system-ui" font-size="15" font-weight="800">@codebolt</text>
  <text x="280" y="184" text-anchor="middle" fill="#C4B5FD" font-family="Inter, ui-sans-serif, system-ui" font-size="12">agent</text>
  <g fill="#111827" stroke="#475569">
    <rect x="58" y="100" width="118" height="38" rx="9"/>
    <rect x="58" y="198" width="118" height="38" rx="9"/>
    <rect x="384" y="100" width="118" height="38" rx="9"/>
    <rect x="384" y="198" width="118" height="38" rx="9"/>
    <rect x="201" y="60" width="158" height="38" rx="9"/>
    <rect x="201" y="238" width="158" height="38" rx="9"/>
  </g>
  <g stroke="#A78BFA" stroke-width="1.7">
    <path d="M177 119L224 146"/>
    <path d="M177 217L224 190"/>
    <path d="M383 119L336 146"/>
    <path d="M383 217L336 190"/>
    <path d="M280 99V110"/>
    <path d="M280 226V238"/>
  </g>
  <text x="117" y="124" text-anchor="middle" fill="#E2E8F0" font-family="Inter, ui-sans-serif, system-ui" font-size="12">tools</text>
  <text x="117" y="222" text-anchor="middle" fill="#E2E8F0" font-family="Inter, ui-sans-serif, system-ui" font-size="12">workflows</text>
  <text x="443" y="124" text-anchor="middle" fill="#E2E8F0" font-family="Inter, ui-sans-serif, system-ui" font-size="12">processors</text>
  <text x="443" y="222" text-anchor="middle" fill="#E2E8F0" font-family="Inter, ui-sans-serif, system-ui" font-size="12">compaction</text>
  <text x="280" y="84" text-anchor="middle" fill="#E2E8F0" font-family="Inter, ui-sans-serif, system-ui" font-size="12">modifiers</text>
  <text x="280" y="262" text-anchor="middle" fill="#E2E8F0" font-family="Inter, ui-sans-serif, system-ui" font-size="12">control</text>
</svg>
