<svg xmlns="http://www.w3.org/2000/svg" width="1800" height="1200" viewBox="0 0 1800 1200" role="img" aria-label="CodeBolt memory architecture technical reference">
  <defs>
    <pattern id="grid" width="24" height="24" patternUnits="userSpaceOnUse">
      <path d="M 24 0 L 0 0 0 24" fill="none" stroke="#dbd2bf" stroke-width="1" opacity="0.55"/>
    </pattern>
    <filter id="shadow" x="-10%" y="-10%" width="130%" height="130%">
      <feDropShadow dx="0" dy="1.5" stdDeviation="1.5" flood-color="#2a261e" flood-opacity="0.10"/>
    </filter>
    <marker id="arrow-green" markerWidth="6" markerHeight="6" refX="5.6" refY="3" orient="auto" markerUnits="userSpaceOnUse">
      <path d="M 0 0 L 6 3 L 0 6 z" fill="#2e7d4f"/>
    </marker>
    <marker id="arrow-ember" markerWidth="6" markerHeight="6" refX="5.6" refY="3" orient="auto" markerUnits="userSpaceOnUse">
      <path d="M 0 0 L 6 3 L 0 6 z" fill="#c86a1b"/>
    </marker>
    <marker id="arrow-dark" markerWidth="6" markerHeight="6" refX="5.6" refY="3" orient="auto" markerUnits="userSpaceOnUse">
      <path d="M 0 0 L 6 3 L 0 6 z" fill="#2f2921"/>
    </marker>
    <style>
      svg { text-rendering: geometricPrecision; shape-rendering: geometricPrecision; }
      .bg { fill: #f8f3e7; }
      .panel { fill: #fffdf7; stroke: #2b2720; stroke-width: 2; rx: 8; ry: 8; }
      .panel-soft { fill: #fffaf1; stroke: #2b2720; stroke-width: 1.5; rx: 6; ry: 6; }
      .box { fill: #fffef9; stroke: #2b2720; stroke-width: 1.35; rx: 6; ry: 6; }
      .box-green { fill: #fbfff9; stroke: #2e7d4f; stroke-width: 1.45; rx: 6; ry: 6; }
      .box-ember { fill: #fff8f2; stroke: #c86a1b; stroke-width: 1.45; rx: 6; ry: 6; }
      .box-dashed-green { fill: #fbfff9; stroke: #2e7d4f; stroke-width: 1.35; stroke-dasharray: 5 4; rx: 6; ry: 6; }
      .box-dashed-ember { fill: #fff8f2; stroke: #c86a1b; stroke-width: 1.35; stroke-dasharray: 5 4; rx: 6; ry: 6; }
      .title { font-family: Consolas, "Courier New", ui-monospace, monospace; font-size: 24px; font-weight: 700; fill: #13110d; }
      .subtitle { font-family: Consolas, "Courier New", ui-monospace, monospace; font-size: 13px; font-weight: 600; fill: #13110d; }
      .section { font-family: Consolas, "Courier New", ui-monospace, monospace; font-size: 16px; font-weight: 700; fill: #13110d; }
      .label { font-family: Consolas, "Courier New", ui-monospace, monospace; font-size: 11.5px; font-weight: 600; fill: #171510; }
      .small { font-family: Consolas, "Courier New", ui-monospace, monospace; font-size: 9.4px; font-weight: 400; fill: #37322b; }
      .tiny { font-family: Consolas, "Courier New", ui-monospace, monospace; font-size: 8.5px; font-weight: 400; fill: #4b453d; }
      .green { fill: #2e7d4f; }
      .ember { fill: #c86a1b; }
      .muted { fill: #5c564d; }
      .rule { stroke: #2b2720; stroke-width: 1.1; fill: none; }
      .rule-green { stroke: #2e7d4f; stroke-width: 1.25; fill: none; marker-end: url(#arrow-green); }
      .rule-ember { stroke: #c86a1b; stroke-width: 1.25; fill: none; marker-end: url(#arrow-ember); }
      .rule-dark { stroke: #2f2921; stroke-width: 1.25; fill: none; marker-end: url(#arrow-dark); }
      .rule-dashed-green { stroke: #2e7d4f; stroke-width: 1.15; fill: none; stroke-dasharray: 5 4; marker-end: url(#arrow-green); }
      .rule-dashed-ember { stroke: #c86a1b; stroke-width: 1.15; fill: none; stroke-dasharray: 5 4; marker-end: url(#arrow-ember); }
      .legend { font-family: Consolas, "Courier New", ui-monospace, monospace; font-size: 10.5px; font-weight: 600; fill: #17301f; }
      .legend-ember { font-family: Consolas, "Courier New", ui-monospace, monospace; font-size: 10.5px; font-weight: 600; fill: #6a3200; }
      .mono { font-family: Consolas, "Courier New", ui-monospace, monospace; }
    </style>
  </defs>

  <rect class="bg" x="0" y="0" width="1800" height="1200"/>
  <rect x="0" y="0" width="1800" height="1200" fill="url(#grid)" opacity="0.55"/>
  <rect x="6" y="6" width="1788" height="1188" fill="none" stroke="#2b2720" stroke-width="2.5" rx="10" ry="10"/>

  <!-- Title strip -->
  <rect class="panel" x="8" y="8" width="1784" height="36" filter="url(#shadow)"/>
  <text class="title" x="24" y="33">CODEBOLT MEMORY technical reference</text>
  <text class="subtitle" x="560" y="33">packages/server</text>
  <text class="subtitle" x="1070" y="33">memory system architecture map</text>
  <rect x="1375" y="14" width="185" height="24" fill="#f8fff3" stroke="#2e7d4f" stroke-width="2" rx="5" ry="5"/>
  <text class="legend" x="1388" y="31">SIGNAL GREEN = local path</text>
  <rect x="1575" y="14" width="197" height="24" fill="#fff5ee" stroke="#c86a1b" stroke-width="2" rx="5" ry="5"/>
  <text class="legend-ember" x="1588" y="31">EMBER = model / vector path</text>

  <!-- 901 SYSTEM TOPOLOGY -->
  <rect class="panel" x="8" y="50" width="1784" height="310" filter="url(#shadow)"/>
  <text class="section" x="20" y="72">901 SYSTEM topology</text>
  <text class="small muted" x="20" y="89">routes, sockets, services, and event bridges that carry memory data through the server</text>

  <!-- topology separators -->
  <line x1="400" y1="76" x2="400" y2="342" class="rule" stroke-dasharray="5 5"/>
  <line x1="650" y1="76" x2="650" y2="342" class="rule" stroke-dasharray="5 5"/>
  <line x1="1180" y1="76" x2="1180" y2="342" class="rule" stroke-dasharray="5 5"/>
  <line x1="1545" y1="76" x2="1545" y2="342" class="rule" stroke-dasharray="5 5"/>

  <text class="tiny" x="230" y="67">INGEST ENTRY</text>
  <text class="tiny" x="515" y="67">TRIGGERS &amp; ROUTES</text>
  <text class="tiny" x="890" y="67">MEMORY STATE &amp; RETRIEVAL CORE</text>
  <text class="tiny" x="1630" y="67">OUTPUTS</text>

  <!-- left source stack -->
  <rect class="box" x="28" y="92" width="150" height="42"/>
  <text class="label" x="103" y="116" text-anchor="middle">APIs</text>
  <text class="tiny" x="103" y="129" text-anchor="middle">REST / WS / CLI</text>

  <rect class="box" x="28" y="142" width="150" height="42"/>
  <text class="label" x="103" y="166" text-anchor="middle">AGENTS</text>
  <text class="tiny" x="103" y="179" text-anchor="middle">context / tasks / swarms</text>

  <rect class="box" x="28" y="192" width="150" height="42"/>
  <text class="label" x="103" y="216" text-anchor="middle">CLI</text>
  <text class="tiny" x="103" y="229" text-anchor="middle">persistentMemory.cli</text>

  <rect class="box" x="28" y="242" width="150" height="42"/>
  <text class="label" x="103" y="266" text-anchor="middle">SDK / API</text>
  <text class="tiny" x="103" y="279" text-anchor="middle">server services / helpers</text>

  <rect class="box" x="28" y="292" width="150" height="42"/>
  <text class="label" x="103" y="316" text-anchor="middle">SOCKETS</text>
  <text class="tiny" x="103" y="329" text-anchor="middle">PM / knowledge / VDB</text>

  <!-- event bus -->
  <rect class="box" x="200" y="152" width="68" height="86" rx="12" ry="12"/>
  <text class="label" x="234" y="181" text-anchor="middle">EVENT</text>
  <text class="label" x="234" y="198" text-anchor="middle">BUS</text>
  <text class="tiny" x="234" y="216" text-anchor="middle">EventEmitter</text>

  <!-- center route group -->
  <rect class="box" x="425" y="84" width="155" height="44"/>
  <text class="label" x="502" y="109" text-anchor="middle">PERSISTENT MEMORY</text>
  <text class="tiny" x="502" y="122" text-anchor="middle">/persistent-memory</text>

  <rect class="box" x="425" y="136" width="155" height="44"/>
  <text class="label" x="502" y="161" text-anchor="middle">MEMORY INGESTION</text>
  <text class="tiny" x="502" y="174" text-anchor="middle">/memory-ingestion</text>

  <rect class="box" x="425" y="188" width="155" height="44"/>
  <text class="label" x="502" y="213" text-anchor="middle">CONTEXT ASSEMBLY</text>
  <text class="tiny" x="502" y="226" text-anchor="middle">/context-assembly</text>

  <rect class="box" x="425" y="240" width="155" height="44"/>
  <text class="label" x="502" y="265" text-anchor="middle">RULE ENGINE</text>
  <text class="tiny" x="502" y="278" text-anchor="middle">/context-rule-engine</text>

  <rect class="box" x="425" y="292" width="155" height="44"/>
  <text class="label" x="502" y="317" text-anchor="middle">SURFACES</text>
  <text class="tiny" x="502" y="330" text-anchor="middle">routes + websocket handlers</text>

  <!-- memory core -->
  <rect class="box-green" x="680" y="84" width="170" height="96"/>
  <text class="label" x="765" y="107" text-anchor="middle">PERSISTENT</text>
  <text class="label" x="765" y="124" text-anchor="middle">MEMORY STORE</text>
  <text class="tiny" x="765" y="143" text-anchor="middle">.codebolt/PersistentMemory/*.json</text>
  <text class="tiny" x="765" y="158" text-anchor="middle">retrieval-only memory definitions</text>

  <rect class="box-ember" x="680" y="190" width="170" height="96"/>
  <text class="label" x="765" y="213" text-anchor="middle">MEMORY INGESTION</text>
  <text class="label" x="765" y="230" text-anchor="middle">EXECUTION CORE</text>
  <text class="tiny" x="765" y="249" text-anchor="middle">processors, routing, side execution</text>
  <text class="tiny" x="765" y="264" text-anchor="middle">event -> write destinations</text>

  <rect class="box-green" x="880" y="84" width="170" height="96"/>
  <text class="label" x="965" y="107" text-anchor="middle">CONTEXT</text>
  <text class="label" x="965" y="124" text-anchor="middle">ASSEMBLY CORE</text>
  <text class="tiny" x="965" y="143" text-anchor="middle">rules -> pipelines -> merge -> budget</text>
  <text class="tiny" x="965" y="158" text-anchor="middle">AssembledContext + trace</text>

  <rect class="box-dashed-green" x="880" y="190" width="170" height="96"/>
  <text class="label" x="965" y="213" text-anchor="middle">RULE ENGINE</text>
  <text class="label" x="965" y="230" text-anchor="middle">VARIABLE MATCHING</text>
  <text class="tiny" x="965" y="249" text-anchor="middle">scope.* / addVar.* / input.*</text>
  <text class="tiny" x="965" y="264" text-anchor="middle">select memories by condition</text>

  <rect class="box-dashed-ember" x="1080" y="84" width="170" height="96"/>
  <text class="label" x="1165" y="107" text-anchor="middle">VECTOR / KVM / LOG</text>
  <text class="label" x="1165" y="124" text-anchor="middle">RETRIEVAL LAYER</text>
  <text class="tiny" x="1165" y="143" text-anchor="middle">vector_search / kv_get / log_search</text>
  <text class="tiny" x="1165" y="158" text-anchor="middle">embeddings + hybrid search</text>

  <rect class="box" x="1080" y="190" width="170" height="96"/>
  <text class="label" x="1165" y="213" text-anchor="middle">MERGE + PACK</text>
  <text class="label" x="1165" y="230" text-anchor="middle">CONTEXT BUILDER</text>
  <text class="tiny" x="1165" y="249" text-anchor="middle">dedupe, section order, token budget</text>
  <text class="tiny" x="1165" y="264" text-anchor="middle">ranked memory context</text>

  <!-- outputs -->
  <rect class="box" x="1572" y="92" width="184" height="42"/>
  <text class="label" x="1664" y="117" text-anchor="middle">RANKED MEMORY CONTEXT</text>
  <text class="tiny" x="1664" y="130" text-anchor="middle">sectioned bundles with trace</text>

  <rect class="box" x="1572" y="142" width="184" height="42"/>
  <text class="label" x="1664" y="167" text-anchor="middle">PROMPTS</text>
  <text class="tiny" x="1664" y="180" text-anchor="middle">system / user / tool context</text>

  <rect class="box" x="1572" y="192" width="184" height="42"/>
  <text class="label" x="1664" y="217" text-anchor="middle">RESPONSES</text>
  <text class="tiny" x="1664" y="230" text-anchor="middle">LLM / agent outputs</text>

  <rect class="box" x="1572" y="242" width="184" height="42"/>
  <text class="label" x="1664" y="267" text-anchor="middle">ACTIONS</text>
  <text class="tiny" x="1664" y="280" text-anchor="middle">tool calls / next steps</text>

  <rect class="box" x="1572" y="292" width="184" height="42"/>
  <text class="label" x="1664" y="317" text-anchor="middle">TRACE</text>
  <text class="tiny" x="1664" y="330" text-anchor="middle">events / rules / pipeline timings</text>

  <!-- topology arrows -->
  <path d="M 178 113 C 190 113, 192 113, 200 167" class="rule-dark"/>
  <path d="M 178 163 C 190 163, 192 163, 200 183" class="rule-dark"/>
  <path d="M 178 213 C 190 213, 192 213, 200 198" class="rule-dark"/>
  <path d="M 178 263 C 190 263, 192 263, 200 213" class="rule-dark"/>
  <path d="M 178 313 C 190 313, 192 313, 200 228" class="rule-dark"/>

  <path d="M 268 170 C 320 170, 345 170, 425 106" class="rule-dark"/>
  <path d="M 268 175 C 332 175, 347 175, 425 158" class="rule-dark"/>
  <path d="M 268 180 C 332 180, 347 180, 425 210" class="rule-dark"/>
  <path d="M 268 185 C 332 185, 347 185, 425 262" class="rule-dark"/>

  <path d="M 580 105 C 625 105, 630 105, 680 132" class="rule-green"/>
  <path d="M 580 157 C 625 157, 630 157, 680 238" class="rule-ember"/>
  <path d="M 580 209 C 650 209, 650 124, 880 124" class="rule-green"/>
  <path d="M 580 261 C 620 261, 650 261, 880 238" class="rule-green"/>
  <path d="M 580 313 C 645 313, 700 313, 1080 313" class="rule-dark"/>

  <path d="M 850 132 C 865 132, 870 132, 880 132" class="rule-green"/>
  <path d="M 850 238 C 865 238, 870 238, 880 238" class="rule-ember"/>
  <path d="M 1050 132 C 1065 132, 1070 132, 1080 132" class="rule-ember"/>
  <path d="M 1050 238 C 1065 238, 1070 238, 1080 238" class="rule-green"/>

  <path d="M 1250 132 C 1350 132, 1490 114, 1572 113" class="rule-dark"/>
  <path d="M 1250 238 C 1350 238, 1490 167, 1572 167" class="rule-dark"/>
  <path d="M 1250 132 C 1355 132, 1490 217, 1572 217" class="rule-dark"/>
  <path d="M 1250 238 C 1350 238, 1490 267, 1572 267" class="rule-dark"/>
  <path d="M 1250 238 C 1360 238, 1490 317, 1572 317" class="rule-dark"/>

  <!-- 902 PRIMITIVES TABLE -->
  <rect class="panel" x="8" y="370" width="548" height="350" filter="url(#shadow)"/>
  <text class="section" x="20" y="392">902 PRIMITIVES table</text>
  <text class="small muted" x="20" y="409">core types that define the memory model, DSL, and storage contracts</text>

  <rect x="18" y="420" width="528" height="278" fill="#fffef8" stroke="#2b2720" stroke-width="1.5" rx="5" ry="5"/>
  <line x1="18" y1="444" x2="546" y2="444" class="rule"/>
  <line x1="18" y1="482" x2="546" y2="482" class="rule" opacity="0.45"/>
  <line x1="18" y1="513" x2="546" y2="513" class="rule" opacity="0.45"/>
  <line x1="18" y1="544" x2="546" y2="544" class="rule" opacity="0.45"/>
  <line x1="18" y1="575" x2="546" y2="575" class="rule" opacity="0.45"/>
  <line x1="18" y1="606" x2="546" y2="606" class="rule" opacity="0.45"/>
  <line x1="18" y1="637" x2="546" y2="637" class="rule" opacity="0.45"/>
  <line x1="18" y1="668" x2="546" y2="668" class="rule" opacity="0.45"/>
  <line x1="130" y1="420" x2="130" y2="698" class="rule"/>
  <line x1="248" y1="420" x2="248" y2="698" class="rule"/>
  <line x1="372" y1="420" x2="372" y2="698" class="rule"/>
  <line x1="470" y1="420" x2="470" y2="698" class="rule"/>

  <text class="tiny" x="28" y="435">PRIMITIVE</text>
  <text class="tiny" x="142" y="435">ROLE</text>
  <text class="tiny" x="260" y="435">SHAPE</text>
  <text class="tiny" x="384" y="435">NOTES</text>
  <text class="tiny" x="482" y="435">SOURCE-FILE</text>

  <g class="small">
    <text x="28" y="468">PersistentMemory</text>
    <text x="142" y="468">retrieval type</text>
    <text x="260" y="468">{id, retrieval}</text>
    <text x="384" y="468">retrieval-only definition</text>
    <text x="482" y="468">persistentMemory.ts</text>

    <text x="28" y="499">PipelineStep</text>
    <text x="142" y="499">DSL node</text>
    <text x="260" y="499">{step, alias, params}</text>
    <text x="384" y="499">derive / search / format</text>
    <text x="482" y="499">persistentMemory.ts</text>

    <text x="28" y="530">ContextRuleEngine</text>
    <text x="142" y="530">selection rules</text>
    <text x="260" y="530">{id, rules, enabled}</text>
    <text x="384" y="530">matches scope/addVar/input</text>
    <text x="482" y="530">contextRuleEngine.ts</text>

    <text x="28" y="561">IngestionPipeline</text>
    <text x="142" y="561">write pipeline</text>
    <text x="260" y="561">{processors, routing}</text>
    <text x="384" y="561">fan-out to stores</text>
    <text x="482" y="561">memoryIngestion.ts</text>

    <text x="28" y="592">VectorDbCollection</text>
    <text x="142" y="592">semantic store</text>
    <text x="260" y="592">collection + sqlite</text>
    <text x="384" y="592">document/chunk index</text>
    <text x="482" y="592">vectordbDataService.ts</text>

    <text x="28" y="623">KnowledgeCollection</text>
    <text x="142" y="623">document store</text>
    <text x="260" y="623">documents + chunks</text>
    <text x="384" y="623">chunking + provenance</text>
    <text x="482" y="623">knowledgeDataService.ts</text>

    <text x="28" y="654">KVRecord / EventLog</text>
    <text x="142" y="654">fast state / timeline</text>
    <text x="260" y="654">project.db</text>
    <text x="384" y="654">shared sqlite storage</text>
    <text x="482" y="654">kvStoreDataService.ts</text>
  </g>

  <!-- 903 INGEST PIPELINE -->
  <rect class="panel" x="566" y="370" width="690" height="350" filter="url(#shadow)"/>
  <text class="section" x="578" y="392">903 INGEST pipeline</text>
  <text class="small muted" x="578" y="409">event bridge -> pipeline -> processors -> routing -> storage destinations</text>

  <rect class="box" x="586" y="432" width="110" height="58"/>
  <text class="label" x="641" y="456" text-anchor="middle">EVENT</text>
  <text class="label" x="641" y="472" text-anchor="middle">INGESTION</text>
  <text class="tiny" x="641" y="486" text-anchor="middle">application event bus</text>

  <rect class="box" x="718" y="432" width="86" height="58"/>
  <text class="label" x="761" y="456" text-anchor="middle">QUEUE</text>
  <text class="tiny" x="761" y="472" text-anchor="middle">event.buffer</text>

  <rect class="box" x="826" y="426" width="128" height="40"/>
  <text class="label" x="890" y="451" text-anchor="middle">PARSE + CHUNK</text>
  <rect class="box" x="826" y="474" width="128" height="40"/>
  <text class="label" x="890" y="499" text-anchor="middle">VECTOR INDEX</text>

  <rect class="box-green" x="968" y="426" width="118" height="40"/>
  <text class="label" x="1027" y="451" text-anchor="middle">GRAPH UPDATE</text>
  <rect class="box-green" x="968" y="474" width="118" height="40"/>
  <text class="label" x="1027" y="499" text-anchor="middle">CACHE UPDATE</text>

  <rect class="box-ember" x="1100" y="426" width="140" height="40"/>
  <text class="label" x="1170" y="451" text-anchor="middle">LLM COMPRESS</text>
  <rect class="box-ember" x="1100" y="474" width="140" height="40"/>
  <text class="label" x="1170" y="499" text-anchor="middle">RERANK MODEL</text>

  <rect class="box" x="826" y="534" width="140" height="82"/>
  <text class="label" x="896" y="558" text-anchor="middle">ROUTING</text>
  <text class="tiny" x="896" y="574" text-anchor="middle">graph / vector / kv / log</text>
  <text class="tiny" x="896" y="589" text-anchor="middle">destination mapping</text>
  <text class="tiny" x="896" y="604" text-anchor="middle">MemoryIngestionDataService</text>

  <rect class="box" x="990" y="534" width="140" height="82"/>
  <text class="label" x="1060" y="558" text-anchor="middle">MERGE INTO</text>
  <text class="label" x="1060" y="575" text-anchor="middle">STORES</text>
  <text class="tiny" x="1060" y="594" text-anchor="middle">write destinations</text>
  <text class="tiny" x="1060" y="608" text-anchor="middle">eventLog / KV / KG / Vector</text>

  <!-- storage sinks -->
  <rect class="box-green" x="1168" y="534" width="70" height="34"/>
  <text class="tiny" x="1203" y="555" text-anchor="middle">KV</text>
  <rect class="box-green" x="1246" y="534" width="70" height="34"/>
  <text class="tiny" x="1281" y="555" text-anchor="middle">KG</text>
  <rect class="box-ember" x="1168" y="580" width="70" height="34"/>
  <text class="tiny" x="1203" y="601" text-anchor="middle">VDB</text>
  <rect class="box" x="1246" y="580" width="70" height="34"/>
  <text class="tiny" x="1281" y="601" text-anchor="middle">LOG</text>

  <text class="tiny" x="590" y="648">processors: chunker -> vector_embed -> llm_extract -> normalizer -> custom</text>
  <text class="tiny" x="590" y="663">storage adapters: knowledge / vectordb / kvstore / kg / eventlog</text>
  <text class="tiny" x="590" y="678">event bridge subscribes active pipelines to application events</text>

  <path d="M 696 461 C 706 461, 708 461, 718 461" class="rule-dark"/>
  <path d="M 804 461 C 812 461, 816 461, 826 446" class="rule-dark"/>
  <path d="M 804 461 C 812 461, 816 461, 826 494" class="rule-dark"/>
  <path d="M 954 446 C 960 446, 964 446, 968 446" class="rule-green"/>
  <path d="M 954 494 C 960 494, 964 494, 968 494" class="rule-green"/>
  <path d="M 1086 446 C 1090 446, 1094 446, 1100 446" class="rule-ember"/>
  <path d="M 1086 494 C 1090 494, 1094 494, 1100 494" class="rule-ember"/>
  <path d="M 896 516 C 896 524, 896 526, 896 534" class="rule-dark"/>
  <path d="M 1060 516 C 1060 524, 1060 526, 1060 534" class="rule-dark"/>
  <path d="M 1130 573 C 1140 573, 1152 573, 1168 551" class="rule-green"/>
  <path d="M 1130 578 C 1140 578, 1152 578, 1246 551" class="rule-green"/>
  <path d="M 1130 583 C 1140 583, 1152 583, 1168 597" class="rule-ember"/>
  <path d="M 1130 588 C 1140 588, 1152 588, 1246 597" class="rule-dark"/>

  <!-- 904 CORE RETRIEVAL -->
  <rect class="panel" x="1274" y="370" width="518" height="350" filter="url(#shadow)"/>
  <text class="section" x="1286" y="392">904 CORE retrieval formula area</text>
  <text class="small muted" x="1286" y="409">persistent memory pipeline, storage lookups, and output packing</text>

  <rect class="box" x="1290" y="426" width="120" height="46"/>
  <text class="label" x="1350" y="449" text-anchor="middle">REQUEST</text>
  <text class="tiny" x="1350" y="463" text-anchor="middle">query + intent + scope</text>

  <rect class="box-green" x="1430" y="418" width="130" height="62"/>
  <text class="label" x="1495" y="443" text-anchor="middle">RULE MATCH</text>
  <text class="tiny" x="1495" y="458" text-anchor="middle">ContextRuleEngine</text>
  <text class="tiny" x="1495" y="471" text-anchor="middle">added memories</text>

  <rect class="box-ember" x="1580" y="418" width="190" height="62"/>
  <text class="label" x="1675" y="443" text-anchor="middle">RETRIEVAL STEPS</text>
  <text class="tiny" x="1675" y="458" text-anchor="middle">vector_search / graph_read</text>
  <text class="tiny" x="1675" y="471" text-anchor="middle">kv_get / log_search / format</text>

  <rect class="box" x="1290" y="516" width="160" height="86"/>
  <text class="label" x="1370" y="540" text-anchor="middle">MEMORY</text>
  <text class="label" x="1370" y="557" text-anchor="middle">PIPELINES</text>
  <text class="tiny" x="1370" y="576" text-anchor="middle">PipelineService</text>
  <text class="tiny" x="1370" y="590" text-anchor="middle">step-by-step execution</text>
  <text class="tiny" x="1370" y="604" text-anchor="middle">formattedOutput + trace</text>

  <rect class="box" x="1470" y="516" width="170" height="86"/>
  <text class="label" x="1555" y="540" text-anchor="middle">MERGE + RANK</text>
  <text class="label" x="1555" y="557" text-anchor="middle">PACKAGER</text>
  <text class="tiny" x="1555" y="576" text-anchor="middle">dedupe, section order, priority</text>
  <text class="tiny" x="1555" y="590" text-anchor="middle">token budget &amp; truncation</text>
  <text class="tiny" x="1555" y="604" text-anchor="middle">ContextAssembly</text>

  <rect class="box" x="1658" y="516" width="120" height="86"/>
  <text class="label" x="1718" y="540" text-anchor="middle">OUTPUT</text>
  <text class="tiny" x="1718" y="558" text-anchor="middle">AssembledContext</text>
  <text class="tiny" x="1718" y="572" text-anchor="middle">prompts / responses</text>
  <text class="tiny" x="1718" y="586" text-anchor="middle">actions / trace</text>
  <text class="tiny" x="1718" y="600" text-anchor="middle">to agents / UI</text>

  <rect class="box-dashed-green" x="1290" y="620" width="190" height="60"/>
  <text class="label" x="1385" y="643" text-anchor="middle">PERSISTENT</text>
  <text class="label" x="1385" y="660" text-anchor="middle">MEMORY DEFINITIONS</text>
  <text class="tiny" x="1385" y="674" text-anchor="middle">.codebolt/PersistentMemory/*.json</text>

  <rect class="box-dashed-ember" x="1500" y="620" width="278" height="60"/>
  <text class="label" x="1639" y="643" text-anchor="middle">STORE LOOKUPS</text>
  <text class="tiny" x="1639" y="659" text-anchor="middle">knowledge / vectordb / project.db / kuzu</text>

  <path d="M 1410 449 C 1420 449, 1425 449, 1430 449" class="rule-green"/>
  <path d="M 1560 449 C 1570 449, 1578 449, 1580 449" class="rule-ember"/>
  <path d="M 1380 474 C 1380 492, 1380 504, 1370 516" class="rule-dark"/>
  <path d="M 1495 480 C 1495 496, 1495 506, 1495 516" class="rule-green"/>
  <path d="M 1670 480 C 1670 496, 1670 506, 1670 516" class="rule-ember"/>
  <path d="M 1450 559 C 1460 559, 1465 559, 1470 559" class="rule-dark"/>
  <path d="M 1640 559 C 1648 559, 1652 559, 1658 559" class="rule-dark"/>
  <path d="M 1385 620 C 1385 614, 1385 610, 1385 602" class="rule-green"/>
  <path d="M 1639 620 C 1639 614, 1639 610, 1639 602" class="rule-ember"/>

  <!-- 905 STATE SCOPES -->
  <rect class="panel" x="8" y="736" width="548" height="334" filter="url(#shadow)"/>
  <text class="section" x="20" y="758">905 STATE scopes</text>
  <text class="small muted" x="20" y="775">where memory lives, how it is selected, and what can be injected into a pipeline</text>

  <rect class="box" x="28" y="794" width="178" height="32"/>
  <text class="tiny" x="117" y="815" text-anchor="middle">EPHEMERAL REQUEST STATE</text>
  <rect class="box" x="28" y="834" width="178" height="32"/>
  <text class="tiny" x="117" y="855" text-anchor="middle">SESSION STATE</text>
  <rect class="box-green" x="28" y="874" width="178" height="32"/>
  <text class="tiny" x="117" y="895" text-anchor="middle">PERSISTENT MEMORY DEF</text>
  <rect class="box-green" x="28" y="914" width="178" height="32"/>
  <text class="tiny" x="117" y="935" text-anchor="middle">RULE ENGINE MATCHES</text>
  <rect class="box-ember" x="28" y="954" width="178" height="32"/>
  <text class="tiny" x="117" y="975" text-anchor="middle">VECTOR / EMBED STATE</text>
  <rect class="box-ember" x="28" y="994" width="178" height="32"/>
  <text class="tiny" x="117" y="1015" text-anchor="middle">EVENT / LOG STATE</text>

  <text class="label" x="232" y="807">INPUT SCOPES</text>
  <text class="tiny" x="232" y="826">swarm / agent / project / orchestrator / thread / task / user / org</text>
  <text class="label" x="232" y="860">SCOPE VARIABLES</text>
  <text class="tiny" x="232" y="879">agent_id, project_path, thread_id, task_id</text>
  <text class="label" x="232" y="913">ADDITIONAL VARIABLES</text>
  <text class="tiny" x="232" y="932">addVar.* for rule and pipeline inputs</text>
  <text class="label" x="232" y="966">CONTRIBUTION CONFIG</text>
  <text class="tiny" x="232" y="985">section / priority / format / max_items</text>
  <text class="label" x="232" y="1019">STATUS</text>
  <text class="tiny" x="232" y="1038">active / deprecated, timestamps, scope filters</text>

  <path d="M 206 894 C 220 894, 226 894, 230 894" class="rule-dark"/>
  <path d="M 206 934 C 220 934, 226 934, 230 934" class="rule-dark"/>
  <path d="M 206 974 C 220 974, 226 974, 230 974" class="rule-dark"/>

  <!-- 906 TIERS -->
  <rect class="panel" x="566" y="736" width="690" height="334" filter="url(#shadow)"/>
  <text class="section" x="578" y="758">906 TIERS derivation cascade</text>
  <text class="small muted" x="578" y="775">the memory stack from definition to filtered context pack</text>

  <rect class="box" x="590" y="798" width="92" height="38"/>
  <text class="tiny" x="636" y="822" text-anchor="middle">T0 DEFINITIONS</text>
  <rect class="box" x="700" y="798" width="92" height="38"/>
  <text class="tiny" x="746" y="822" text-anchor="middle">T1 RULES</text>
  <rect class="box-green" x="810" y="798" width="92" height="38"/>
  <text class="tiny" x="856" y="822" text-anchor="middle">T2 REQUEST</text>
  <rect class="box-ember" x="920" y="798" width="92" height="38"/>
  <text class="tiny" x="966" y="822" text-anchor="middle">T3 RETRIEVAL</text>
  <rect class="box-green" x="1030" y="798" width="92" height="38"/>
  <text class="tiny" x="1076" y="822" text-anchor="middle">T4 MERGE</text>
  <rect class="box" x="1140" y="798" width="92" height="38"/>
  <text class="tiny" x="1186" y="822" text-anchor="middle">T5 OUTPUT</text>

  <line x1="636" y1="836" x2="636" y2="912" class="rule-dark"/>
  <line x1="746" y1="836" x2="746" y2="912" class="rule-dark"/>
  <line x1="856" y1="836" x2="856" y2="912" class="rule-dark"/>
  <line x1="966" y1="836" x2="966" y2="912" class="rule-dark"/>
  <line x1="1076" y1="836" x2="1076" y2="912" class="rule-dark"/>
  <line x1="1186" y1="836" x2="1186" y2="912" class="rule-dark"/>

  <text class="tiny" x="590" y="872">PersistentMemoryDataService</text>
  <text class="tiny" x="700" y="872">ContextRuleEngineService</text>
  <text class="tiny" x="810" y="872">ContextAssemblyRequest</text>
  <text class="tiny" x="920" y="872">PipelineExecutor</text>
  <text class="tiny" x="1030" y="872">Dedupe + Priority</text>
  <text class="tiny" x="1140" y="872">AssembledContext</text>

  <text class="tiny" x="590" y="894">read JSON store</text>
  <text class="tiny" x="700" y="894">resolve matched memories</text>
  <text class="tiny" x="810" y="894">validate required vars</text>
  <text class="tiny" x="920" y="894">run vector / graph / kv / log</text>
  <text class="tiny" x="1030" y="894">section order + token budget</text>
  <text class="tiny" x="1140" y="894">prompts / responses / actions</text>

  <path d="M 682 817 C 690 817, 694 817, 700 817" class="rule-dark"/>
  <path d="M 792 817 C 800 817, 804 817, 810 817" class="rule-green"/>
  <path d="M 902 817 C 910 817, 914 817, 920 817" class="rule-ember"/>
  <path d="M 1012 817 C 1020 817, 1024 817, 1030 817" class="rule-green"/>
  <path d="M 1122 817 C 1130 817, 1134 817, 1140 817" class="rule-dark"/>

  <rect class="box-dashed-green" x="590" y="932" width="250" height="80"/>
  <text class="label" x="715" y="956" text-anchor="middle">FREE PATH</text>
  <text class="tiny" x="715" y="972" text-anchor="middle">local JSON, scopes, rules, transforms</text>
  <text class="tiny" x="715" y="987" text-anchor="middle">low cost / repeatable / file-backed</text>

  <rect class="box-dashed-ember" x="860" y="932" width="360" height="80"/>
  <text class="label" x="1040" y="956" text-anchor="middle">EMBER PATH</text>
  <text class="tiny" x="1040" y="972" text-anchor="middle">embeddings, vector search, rerank, LLM extract</text>
  <text class="tiny" x="1040" y="987" text-anchor="middle">expensive / model-backed / hybrid retrieval</text>

  <!-- 907 SURFACES -->
  <rect class="panel" x="1274" y="736" width="518" height="334" filter="url(#shadow)"/>
  <text class="section" x="1286" y="758">907 SURFACES</text>
  <text class="small muted" x="1286" y="775">the public entry points and realtime channels for the memory subsystem</text>

  <rect x="1288" y="792" width="490" height="250" fill="#fffef8" stroke="#2b2720" stroke-width="1.5" rx="6" ry="6"/>
  <line x1="1400" y1="792" x2="1400" y2="1042" class="rule"/>
  <line x1="1532" y1="792" x2="1532" y2="1042" class="rule"/>
  <line x1="1650" y1="792" x2="1650" y2="1042" class="rule"/>
  <line x1="1288" y1="818" x2="1778" y2="818" class="rule"/>
  <line x1="1288" y1="848" x2="1778" y2="848" class="rule" opacity="0.45"/>
  <line x1="1288" y1="878" x2="1778" y2="878" class="rule" opacity="0.45"/>
  <line x1="1288" y1="908" x2="1778" y2="908" class="rule" opacity="0.45"/>
  <line x1="1288" y1="938" x2="1778" y2="938" class="rule" opacity="0.45"/>
  <line x1="1288" y1="968" x2="1778" y2="968" class="rule" opacity="0.45"/>
  <line x1="1288" y1="998" x2="1778" y2="998" class="rule" opacity="0.45"/>

  <text class="tiny" x="1298" y="808">SURFACE</text>
  <text class="tiny" x="1412" y="808">ACTION</text>
  <text class="tiny" x="1544" y="808">WS EVENT</text>
  <text class="tiny" x="1662" y="808">SOURCE</text>

  <text class="small" x="1298" y="836">persistent-memory</text>
  <text class="tiny" x="1412" y="836">CRUD + executeRetrieval</text>
  <text class="tiny" x="1544" y="836">persistentMemory:created</text>
  <text class="tiny" x="1662" y="836">routes / socket</text>

  <text class="small" x="1298" y="866">memory-ingestion</text>
  <text class="tiny" x="1412" y="866">pipelines / execute / validate</text>
  <text class="tiny" x="1544" y="866">execution-completed</text>
  <text class="tiny" x="1662" y="866">routes / socket</text>

  <text class="small" x="1298" y="896">context-assembly</text>
  <text class="tiny" x="1412" y="896">assemble / evaluate</text>
  <text class="tiny" x="1544" y="896">contextAssembly:complete</text>
  <text class="tiny" x="1662" y="896">routes / socket</text>

  <text class="small" x="1298" y="926">knowledge</text>
  <text class="tiny" x="1412" y="926">collections / documents / chunks</text>
  <text class="tiny" x="1544" y="926">chunking-completed</text>
  <text class="tiny" x="1662" y="926">routes / socket</text>

  <text class="small" x="1298" y="956">vectorDB</text>
  <text class="tiny" x="1412" y="956">collections / upsert / query</text>
  <text class="tiny" x="1544" y="956">indexing-completed</text>
  <text class="tiny" x="1662" y="956">routes / socket</text>

  <text class="small" x="1298" y="986">kvstore / eventlog / kg</text>
  <text class="tiny" x="1412" y="986">state / timeline / graph stores</text>
  <text class="tiny" x="1544" y="986">shared project.db / kuzu</text>
  <text class="tiny" x="1662" y="986">retrieval backends</text>

  <!-- 908 BOOT STRIP -->
  <rect class="panel" x="8" y="1084" width="1784" height="108" filter="url(#shadow)"/>
  <text class="section" x="20" y="1106">908 BOOT</text>
  <text class="small muted" x="20" y="1123">startup sequence that makes the memory system available to routes, sockets, and context assembly</text>

  <rect class="box" x="20" y="1135" width="170" height="42"/>
  <text class="tiny" x="105" y="1152" text-anchor="middle">1 PROJECT PATH</text>
  <text class="tiny" x="105" y="1165" text-anchor="middle">user_active_project_path</text>

  <rect class="box" x="206" y="1135" width="170" height="42"/>
  <text class="tiny" x="291" y="1152" text-anchor="middle">2 LOAD DEFINITIONS</text>
  <text class="tiny" x="291" y="1165" text-anchor="middle">persistent memory + rules + pipelines</text>

  <rect class="box-green" x="392" y="1135" width="170" height="42"/>
  <text class="tiny" x="477" y="1152" text-anchor="middle">3 RULE MATCHING</text>
  <text class="tiny" x="477" y="1165" text-anchor="middle">scope + additional variables</text>

  <rect class="box-ember" x="578" y="1135" width="170" height="42"/>
  <text class="tiny" x="663" y="1152" text-anchor="middle">4 RETRIEVAL PIPELINE</text>
  <text class="tiny" x="663" y="1165" text-anchor="middle">vector / graph / kv / log steps</text>

  <rect class="box-green" x="764" y="1135" width="170" height="42"/>
  <text class="tiny" x="849" y="1152" text-anchor="middle">5 MERGE + BUDGET</text>
  <text class="tiny" x="849" y="1165" text-anchor="middle">dedupe, section order, truncation</text>

  <rect class="box" x="950" y="1135" width="170" height="42"/>
  <text class="tiny" x="1035" y="1152" text-anchor="middle">6 READY FOR CONTEXT</text>
  <text class="tiny" x="1035" y="1165" text-anchor="middle">prompts / actions / trace</text>

  <rect class="box" x="1144" y="1126" width="200" height="56"/>
  <text class="tiny" x="1244" y="1146" text-anchor="middle">ENV EXAMPLE</text>
  <text class="tiny" x="1244" y="1161" text-anchor="middle">STORE_PATH, INGEST_PORT, API KEY</text>
  <text class="tiny" x="1244" y="1174" text-anchor="middle">matches the server's project-local layout</text>

  <rect class="box" x="1360" y="1126" width="200" height="56"/>
  <text class="tiny" x="1460" y="1146" text-anchor="middle">HEALTH CHECK</text>
  <text class="tiny" x="1460" y="1161" text-anchor="middle">store / vec / graph / cache / workers</text>
  <text class="tiny" x="1460" y="1174" text-anchor="middle">service readiness and DB migration state</text>

  <path d="M 190 1156 C 198 1156, 202 1156, 206 1156" class="rule-dark"/>
  <path d="M 376 1156 C 384 1156, 388 1156, 392 1156" class="rule-dark"/>
  <path d="M 562 1156 C 570 1156, 574 1156, 578 1156" class="rule-dark"/>
  <path d="M 748 1156 C 756 1156, 760 1156, 764 1156" class="rule-dark"/>
  <path d="M 934 1156 C 942 1156, 946 1156, 950 1156" class="rule-dark"/>

</svg>
