<svg width="720" height="420" viewBox="0 0 720 420" fill="none" xmlns="http://www.w3.org/2000/svg">
  <rect width="720" height="420" rx="18" fill="#061018"/>
  <rect x="34" y="34" width="652" height="352" rx="14" fill="#090D13" stroke="#1D3345"/>
  <text x="62" y="77" fill="#7B8BA0" font-family="ui-monospace, SFMono-Regular, Menlo, monospace" font-size="14" letter-spacing="4">CONTEXT CONTROLS</text>
  <rect x="72" y="118" width="172" height="62" rx="10" fill="#0F1B27" stroke="#00D8FF"/>
  <text x="113" y="155" fill="#E9F7FF" font-family="Arial, sans-serif" font-size="18" font-weight="700">@file</text>
  <rect x="274" y="118" width="172" height="62" rx="10" fill="#111827" stroke="#2A4058"/>
  <text x="316" y="155" fill="#CFE1F1" font-family="Arial, sans-serif" font-size="18" font-weight="700">/agent</text>
  <rect x="476" y="118" width="172" height="62" rx="10" fill="#111827" stroke="#2A4058"/>
  <text x="520" y="155" fill="#CFE1F1" font-family="Arial, sans-serif" font-size="18" font-weight="700">/model</text>
  <rect x="112" y="232" width="128" height="50" rx="9" fill="#111827" stroke="#2A4058"/>
  <text x="153" y="263" fill="#CFE1F1" font-family="Arial, sans-serif" font-size="16" font-weight="700">todos</text>
  <rect x="292" y="232" width="168" height="50" rx="9" fill="#111827" stroke="#2A4058"/>
  <text x="327" y="263" fill="#CFE1F1" font-family="Arial, sans-serif" font-size="16" font-weight="700">action plan</text>
  <rect x="512" y="232" width="96" height="50" rx="9" fill="#12121A" stroke="#5FF5D0"/>
  <text x="537" y="263" fill="#E9F7FF" font-family="Arial, sans-serif" font-size="16" font-weight="700">run</text>
  <path d="M158 180V207H560V232" stroke="#00D8FF" stroke-width="3" stroke-linecap="round"/>
  <path d="M360 180V232" stroke="#00D8FF" stroke-width="3" stroke-linecap="round"/>
  <path d="M560 180V232" stroke="#00D8FF" stroke-width="3" stroke-linecap="round"/>
  <rect x="188" y="326" width="344" height="32" rx="16" fill="#091D26" stroke="#00D8FF"/>
  <text x="263" y="348" fill="#9EF7FF" font-family="Arial, sans-serif" font-size="13" font-weight="700">structured context before tool execution</text>
</svg>
