<svg width="560" height="320" viewBox="0 0 560 320" fill="none" xmlns="http://www.w3.org/2000/svg" role="img" aria-labelledby="title desc">
  <title id="title">Plugin SDK runtime extension</title>
  <desc id="desc">Plugins add routes, hooks, dynamic panels, commands, external adapters, marketplace packages, and runtime backend logic.</desc>
  <rect width="560" height="320" rx="18" fill="#050816"/>
  <rect x="30" y="28" width="500" height="264" rx="14" fill="#100A12" stroke="#1F2937"/>
  <text x="54" y="64" fill="#94A3B8" font-family="Inter, ui-sans-serif, system-ui" font-size="12" letter-spacing="1.8">PLUGIN SDK</text>
  <rect x="64" y="94" width="162" height="132" rx="14" fill="#2A0F18" stroke="#FB7185"/>
  <text x="145" y="140" text-anchor="middle" fill="#FFE4E6" font-family="Inter, ui-sans-serif, system-ui" font-size="16" font-weight="800">Plugin</text>
  <text x="145" y="164" text-anchor="middle" fill="#FECDD3" font-family="Inter, ui-sans-serif, system-ui" font-size="12">engine process</text>
  <text x="145" y="190" text-anchor="middle" fill="#FECDD3" font-family="Inter, ui-sans-serif, system-ui" font-size="11">backend logic</text>
  <g fill="#111827" stroke="#475569">
    <rect x="282" y="82" width="96" height="38" rx="9"/>
    <rect x="398" y="82" width="96" height="38" rx="9"/>
    <rect x="282" y="142" width="96" height="38" rx="9"/>
    <rect x="398" y="142" width="96" height="38" rx="9"/>
    <rect x="282" y="202" width="96" height="38" rx="9"/>
    <rect x="398" y="202" width="96" height="38" rx="9"/>
  </g>
  <g stroke="#FB7185" stroke-width="1.7">
    <path d="M226 142H282"/>
    <path d="M226 154H282"/>
    <path d="M226 166H282"/>
    <path d="M226 178H282"/>
  </g>
  <text x="330" y="106" text-anchor="middle" fill="#E2E8F0" font-family="Inter, ui-sans-serif, system-ui" font-size="12">routes</text>
  <text x="446" y="106" text-anchor="middle" fill="#E2E8F0" font-family="Inter, ui-sans-serif, system-ui" font-size="12">hooks</text>
  <text x="330" y="166" text-anchor="middle" fill="#E2E8F0" font-family="Inter, ui-sans-serif, system-ui" font-size="12">panels</text>
  <text x="446" y="166" text-anchor="middle" fill="#E2E8F0" font-family="Inter, ui-sans-serif, system-ui" font-size="12">commands</text>
  <text x="330" y="226" text-anchor="middle" fill="#E2E8F0" font-family="Inter, ui-sans-serif, system-ui" font-size="12">adapters</text>
  <text x="446" y="226" text-anchor="middle" fill="#E2E8F0" font-family="Inter, ui-sans-serif, system-ui" font-size="12">packages</text>
</svg>
