<svg width="560" height="320" viewBox="0 0 560 320" fill="none" xmlns="http://www.w3.org/2000/svg" role="img" aria-labelledby="title desc">
  <title id="title">Client SDK custom interfaces</title>
  <desc id="desc">Custom web apps, dashboards, vertical IDEs, and mobile surfaces connect to Codebolt through REST and WebSocket APIs.</desc>
  <defs>
    <marker id="arrow" markerWidth="10" markerHeight="10" refX="8" refY="5" orient="auto">
      <path d="M1 1L9 5L1 9" stroke="#38BDF8" stroke-width="1.6" stroke-linecap="round" stroke-linejoin="round"/>
    </marker>
  </defs>
  <rect width="560" height="320" rx="18" fill="#050816"/>
  <rect x="30" y="28" width="500" height="264" rx="14" fill="#08111F" stroke="#1F2937"/>
  <text x="54" y="64" fill="#94A3B8" font-family="Inter, ui-sans-serif, system-ui" font-size="12" letter-spacing="1.8">CLIENT SDK</text>
  <g fill="#111827" stroke="#475569">
    <rect x="58" y="94" width="132" height="44" rx="9"/>
    <rect x="58" y="152" width="132" height="44" rx="9"/>
    <rect x="58" y="210" width="132" height="44" rx="9"/>
  </g>
  <text x="124" y="122" text-anchor="middle" fill="#E2E8F0" font-family="Inter, ui-sans-serif, system-ui" font-size="13">Web app</text>
  <text x="124" y="180" text-anchor="middle" fill="#E2E8F0" font-family="Inter, ui-sans-serif, system-ui" font-size="13">Dashboard</text>
  <text x="124" y="238" text-anchor="middle" fill="#E2E8F0" font-family="Inter, ui-sans-serif, system-ui" font-size="13">Mobile surface</text>
  <path d="M208 174H292" stroke="#38BDF8" stroke-width="2" marker-end="url(#arrow)"/>
  <rect x="310" y="118" width="110" height="112" rx="14" fill="#071B2B" stroke="#38BDF8"/>
  <text x="365" y="158" text-anchor="middle" fill="#E0F2FE" font-family="Inter, ui-sans-serif, system-ui" font-size="15" font-weight="800">REST</text>
  <text x="365" y="185" text-anchor="middle" fill="#BAE6FD" font-family="Inter, ui-sans-serif, system-ui" font-size="12">WebSocket</text>
  <path d="M438 174H486" stroke="#38BDF8" stroke-width="2" marker-end="url(#arrow)"/>
  <circle cx="498" cy="174" r="28" fill="#111827" stroke="#475569"/>
  <text x="498" y="170" text-anchor="middle" fill="#E2E8F0" font-family="Inter, ui-sans-serif, system-ui" font-size="12" font-weight="800">Engine</text>
  <text x="498" y="187" text-anchor="middle" fill="#94A3B8" font-family="Inter, ui-sans-serif, system-ui" font-size="10">state</text>
</svg>
