<svg width="960" height="560" viewBox="0 0 960 560" fill="none" xmlns="http://www.w3.org/2000/svg">
  <rect width="960" height="560" rx="24" fill="#050B14"/>
  <rect x="42" y="42" width="876" height="476" rx="16" fill="#080C13" stroke="#1D3348"/>
  <text x="78" y="92" fill="#7B8BA0" font-family="ui-monospace, SFMono-Regular, Menlo, monospace" font-size="15" letter-spacing="4">CLI ORCHESTRATION MAP</text>
  <rect x="92" y="176" width="178" height="104" rx="14" fill="#081A24" stroke="#00D8FF"/>
  <text x="138" y="220" fill="#E9F7FF" font-family="Arial, sans-serif" font-size="20" font-weight="700">Codebolt</text>
  <text x="158" y="248" fill="#9EF7FF" font-family="Arial, sans-serif" font-size="14" font-weight="700">CLI</text>
  <rect x="390" y="156" width="188" height="144" rx="14" fill="#111827" stroke="#34475E"/>
  <text x="440" y="208" fill="#E9F7FF" font-family="Arial, sans-serif" font-size="20" font-weight="700">Server</text>
  <text x="436" y="238" fill="#B8C8D8" font-family="Arial, sans-serif" font-size="14" font-weight="700">runtime</text>
  <text x="418" y="264" fill="#B8C8D8" font-family="Arial, sans-serif" font-size="14" font-weight="700">WebSocket control</text>
  <path d="M270 228H390" stroke="#00D8FF" stroke-width="4"/>
  <path d="M374 214L392 228L374 242" stroke="#00D8FF" stroke-width="4" stroke-linecap="round" stroke-linejoin="round"/>
  <rect x="700" y="104" width="152" height="44" rx="8" fill="#111827" stroke="#34475E"/>
  <text x="738" y="132" fill="#D7E7F4" font-family="Arial, sans-serif" font-size="14" font-weight="700">local</text>
  <rect x="700" y="176" width="152" height="44" rx="8" fill="#111827" stroke="#34475E"/>
  <text x="734" y="204" fill="#D7E7F4" font-family="Arial, sans-serif" font-size="14" font-weight="700">Docker</text>
  <rect x="700" y="248" width="152" height="44" rx="8" fill="#111827" stroke="#34475E"/>
  <text x="734" y="276" fill="#D7E7F4" font-family="Arial, sans-serif" font-size="14" font-weight="700">remote</text>
  <rect x="700" y="320" width="152" height="44" rx="8" fill="#111827" stroke="#34475E"/>
  <text x="734" y="348" fill="#D7E7F4" font-family="Arial, sans-serif" font-size="14" font-weight="700">cloud</text>
  <rect x="700" y="392" width="152" height="44" rx="8" fill="#111827" stroke="#34475E"/>
  <text x="744" y="420" fill="#D7E7F4" font-family="Arial, sans-serif" font-size="14" font-weight="700">fleet</text>
  <path d="M578 206C642 206 626 126 700 126M578 216C642 216 626 198 700 198M578 228H700M578 240C642 240 626 342 700 342M578 252C642 252 626 414 700 414" stroke="#00D8FF" stroke-width="4" stroke-linecap="round"/>
  <rect x="226" y="372" width="354" height="44" rx="22" fill="#061A22" stroke="#00D8FF"/>
  <text x="286" y="400" fill="#9EF7FF" font-family="Arial, sans-serif" font-size="15" font-weight="700">one TUI, many threads, many environments</text>
</svg>
